<svg width="720" height="440" viewBox="0 0 720 440" fill="none" xmlns="http://www.w3.org/2000/svg">
  <rect x="20" y="20" width="680" height="400" rx="24" fill="#0b1120" stroke="#6366f1" stroke-width="2" />
  <rect x="48" y="64" width="624" height="312" rx="16" fill="#111827" stroke="#374151" stroke-width="2" />
  <rect x="72" y="104" width="240" height="20" rx="6" fill="#1f2937" />
  <rect x="72" y="140" width="360" height="12" rx="6" fill="#1f2937" />
  <rect x="72" y="168" width="300" height="12" rx="6" fill="#1f2937" />
  <rect x="72" y="196" width="200" height="12" rx="6" fill="#1f2937" />
  <rect x="72" y="250" width="280" height="60" rx="12" fill="#111827" stroke="#4f46e5" stroke-width="2" />
  <text x="96" y="285" fill="#e5e7eb" font-family="'IBM Plex Mono', 'SFMono-Regular', monospace" font-size="18">VPPChat (Beta)</text>
  <text x="96" y="315" fill="#9ca3af" font-family="'IBM Plex Mono', 'SFMono-Regular', monospace" font-size="14">Screenshot placeholder</text>
  <rect x="392" y="250" width="256" height="60" rx="12" fill="#1f2937" stroke="#4b5563" stroke-width="2" />
  <text x="414" y="287" fill="#cbd5e1" font-family="'IBM Plex Mono', 'SFMono-Regular', monospace" font-size="14">VPP enforced</text>
  <rect x="392" y="326" width="120" height="20" rx="6" fill="#1f2937" />
  <rect x="532" y="326" width="120" height="20" rx="6" fill="#1f2937" />
  <text x="360" y="48" fill="#a5b4ff" font-family="'IBM Plex Mono', 'SFMono-Regular', monospace" font-size="16" text-anchor="middle">VPPChat beta preview</text>
</svg>
